<svg width="1041.3199462890625" height="554.1699829101562" xmlns="http://www.w3.org/2000/svg" style="">
 <defs>
  <linearGradient y2="0" x2="1" y1="0" x1="0" id="svg_2">
   <stop offset="0" stop-color="#67e7e7"/>
   <stop offset="1" stop-color="#981818"/>
  </linearGradient>
 <linearGradient id="svg_3" spreadMethod="pad"><stop stop-color="#4a90d6" stop-opacity="1" offset="0"/><stop stop-color="#8e0c0c" stop-opacity="0.99609375" offset="1"/></linearGradient><linearGradient id="svg_4" spreadMethod="pad"><stop stop-color="#d50bd5" stop-opacity="1" offset="0"/><stop stop-color="#2af42a" stop-opacity="1" offset="1"/></linearGradient><linearGradient id="svg_5" spreadMethod="pad" x1="0.0" y1="0.0" x2="1" y2="0.0"><stop stop-color="#c9c9c9" stop-opacity="0.99609375" offset="0"/><stop stop-color="#2af42a" stop-opacity="1" offset="1"/></linearGradient><linearGradient id="svg_21" spreadMethod="pad" x1="0.0" y1="0.0" x2="1" y2="0.0"><stop stop-color="#c9c9c9" stop-opacity="0.99609375" offset="0"/><stop stop-color="#b20e8c" stop-opacity="0.99609375" offset="1"/></linearGradient><linearGradient id="svg_1" spreadMethod="pad" x1="0.0" y1="0.0" x2="1" y2="0.0"><stop stop-color="#d0cde1" stop-opacity="0.98828125" offset="0"/><stop stop-color="#114a7f" stop-opacity="0.984375" offset="1"/></linearGradient><linearGradient id="svg_7" spreadMethod="pad" x1="0.0" y1="0.0" x2="1" y2="0.0"><stop stop-color="#efefef" stop-opacity="0.984375" offset="0"/><stop stop-color="#114a7f" stop-opacity="0.984375" offset="1"/></linearGradient><linearGradient id="svg_9" spreadMethod="pad" x1="0.0" y1="0.0" x2="1" y2="0.0"><stop stop-color="#efefef" stop-opacity="0.984375" offset="0"/><stop stop-color="#bc36a6" stop-opacity="0.98046875" offset="0.505859375"/><stop stop-color="#114a7f" stop-opacity="0.984375" offset="1"/></linearGradient></defs>
 <title>programming</title>
 <g class="currentLayer" style="">
  <title>Layer 1</title>
  <path opacity="0.54" fill="#dadada" d="m983.5227963775978,464.4140838491003 q-1.8019509710803163,3.9325127005577087 -3.593536469902517,7.760151995193155 q-2.7961592883157778,5.945972784461333 -5.519818788176053,11.661205874261213 c-0.8078058007334477,1.6883755526098696 -1.6155495039400876,3.345259530792532 -2.4026224466152257,5.002177136991236 c-8.906220377335558,18.425108517498302 -17.222198700736044,34.72145010941313 -24.28506621676206,48.12345211279899 a75.81700426417774,76.77313365533519 0 0 1 -66.08226905473566,40.58341585942253 l-157.05021259315254,1.7303308155079833 l-1.6570142324220853,0 l-13.462929487228394,0.14676556941109453 l-11.515977704693796,0.1258351609473891 l-35.31427437151433,0.388066648805669 l-1.42914692571091,0 l-17.97823695380066,0.19924940159916815 l-0.5488401637058473,0 l-110.81026577949524,1.2164289745021222 l-98.9110858417771,1.0486700534820557 l-11.505611491709715,0.1258351609473891 l-71.45708727836609,0.7865025401115417 l-0.08296167854351211,0 l-46.343545734882355,0.5033406437895565 l-0.4971041586177307,0 l-146.53879361652434,1.6044956545605942 l-43.837379427672204,0.48241129792115345 a91.20616891012651,92.35637129013594 0 0 1 -27.619715751770855,-4.005927034967897 a89.4663438603493,90.59460528025738 0 0 1 -40.48199746669525,-25.954583823680878 c-18.827395324759436,-21.004795885390195 -32.54915619243411,-45.512177911936305 -41.76611605063681,-72.1064351068635 q-1.9987271695532343,-5.757188352697995 -3.728195759238247,-11.661205874261213 c-31.90711270261727,-109.21901167245233 6.990399331878393,-250.12884964268233 76.99759898712546,-344.42525893161655 q4.401342332363129,-5.91449796153654 8.947669427117944,-11.535370588302612 l0.07249269754755794,-0.08389570415439884 c21.530332028089106,-26.7620642452639 45.67040558138251,-49.119709465472624 71.38461069932418,-65.01754331588745 c45.56683826446533,-28.219710979187766 96.05282384157181,-36.168631904753966 145.71031828980267,-12.479175236579977 c42.01467208048416,20.05057430283523 81.24358244303585,29.47811584343799 119.2711814588256,32.03687333416383 c3.842103610639356,0.251678713272387 7.6842393194039005,0.44043931477342824 11.505643096017593,0.5557940982531022 c87.22943835518527,2.77897774191581 168.98045956551505,-29.0481612815247 264.98145234216645,-49.59160778925252 c3.8214027889790714,-0.8179636743086149 7.653173272394156,-1.625437532803005 11.515977704693796,-2.3909686920260924 c68.48489174825954,-13.800496743719805 144.4572864931979,-21.078266474845805 234.80388933872746,-5.778170734573109 a195.82348364902282,198.29301657257747 0 0 1 27.712869449242135,6.711489442383822 q5.975490192982647,1.9505251893770605 11.516040913309553,4.194680213928223 c43.122750719005126,17.76446926585686 66.64147567833425,50.587841139773445 76.63507387253048,91.71668191745448 q1.4187804658181733,5.725737531925915 2.454390549828531,11.650724934243044 c17.719524089508923,98.9315290051527 -34.175002281117486,239.2645792442454 -79.08940121374326,336.6755718750064 z" class="selected" transform="translate(-2.24719) translate(11.236, 11.236) translate(-2.24719, -44.9438) translate(21.3483, 25.8427) translate(-28.0899, -23.5955) translate(41.5584, 51.9481) translate(1.94805, 71.4286) translate(-527.922, -634.416) translate(477.922, 634.416) translate(0, 1.94805) translate(-20.7792, 3.24675) translate(129.87, -73.3766) translate(0, -1.94805) translate(-88.3117, 134.416) translate(107.792, 68.8312) translate(-137.662, -29.2208) translate(0.649351, -0.649351) translate(0, -1.2987) translate(-1.2987, 1.2987) translate(68.8312, -98.7013) translate(6.49351) translate(-75.3247, 1.2987) translate(0, -1.2987) translate(62.987, -55.1948) translate(0.649351) translate(0.649351, 0.649351) translate(-12.1844, 4.91288) scale(1.13532, 1.30004) translate(12.1844, -4.91288) translate(-12.1844, 4.91288) scale(0.927661, 0.85115) translate(12.1844, -4.91288) translate(-12.1844, 4.91288) scale(0.892115, 0.852322) translate(12.1844, -4.91288) translate(-12.1844, 4.91288) scale(0.947617, 0.909752) translate(12.1844, -4.91288) translate(-12.1844, 4.91288) scale(0.964391, 0.922935) translate(12.1844, -4.91288)" fill-opacity="1" id="svg_19"/>
  <rect height="0" width="1" y="164" x="380" id="svg_77" opacity="0.18" fill-rule="nonzero" fill="#8ae9e9"/>
  <rect height="0" width="1" y="-37" x="654" id="svg_80" opacity="0.18" fill-rule="nonzero" fill="#8ae9e9"/>
  <rect height="2" width="1" y="133" x="719" id="svg_82" opacity="0.18" fill-rule="nonzero" fill="#8ae9e9"/>
 <path fill="url(#svg_5)" fill-opacity="1" stroke="none" stroke-opacity="1" style="color: rgb(0, 0, 0);" stroke-width="1" stroke-dasharray="none" stroke-linejoin="miter" stroke-linecap="butt" stroke-dashoffset="" fill-rule="nonzero" opacity="1" marker-start="" marker-mid="" marker-end="" id="svg_6" d="M171.62138652801514,390.99433803558344 "/><polyline fill="url(#svg_5)" style="color: rgb(0, 0, 0);" stroke-dashoffset="" fill-rule="nonzero" opacity="0.18" marker-start="" marker-mid="" marker-end="" id="svg_8" points="622.4330444335938,452.35797119140625 622.4330444335938,453.65667247772217 "/><polyline fill="url(#svg_5)" style="color: rgb(0, 0, 0);" stroke-dashoffset="" fill-rule="nonzero" opacity="0.18" marker-start="" marker-mid="" marker-end="" id="svg_10" points="763.9914846420288,23.78654670715332 763.9914846420288,22.487845420837402 770.4849910736084,18.59174156188965 776.978497505188,12.098235130310059 "/><rect fill="url(#svg_5)" style="color: rgb(0, 0, 0);" stroke-dashoffset="" fill-rule="nonzero" opacity="0.18" id="svg_13" x="1186" y="503" width="2" height="1"/><rect fill="url(#svg_5)" style="color: rgb(0, 0, 0);" stroke-dashoffset="" fill-rule="nonzero" opacity="0.18" id="svg_16" x="367" y="-20" width="3" height="1"/></g>
 <g style="">
  <title>Layer 2</title>
  <rect fill="none" y="0" x="0" height="100%" width="100%" id="backgroundrect"/>
 </g>
 <g style="">
  <title>background</title>
  <rect fill="none" id="canvas_background" height="402" width="582" y="-1" x="-1"/>
 </g>
</svg>